<mxfile host="app.diagrams.net" modified="2022-12-19T07:22:16.767Z" agent="5.0 (Macintosh)" etag="0hmofKdwy_JKG9GCEXmp" version="20.7.4" type="github">
  <diagram id="kgpKYQtTHZ0yAKxKKP6v" name="Page-1">
    <mxGraphModel dx="778" dy="857" grid="1" gridSize="10" guides="1" tooltips="1" connect="1" arrows="1" fold="1" page="1" pageScale="1" pageWidth="850" pageHeight="1100" math="0" shadow="0">
      <root>
        <mxCell id="0" />
        <mxCell id="1" parent="0" />
        <mxCell id="3nuBFxr9cyL0pnOWT2aG-1" value="Slack Client" style="shape=umlLifeline;perimeter=lifelinePerimeter;container=1;collapsible=0;recursiveResize=0;rounded=0;shadow=0;strokeWidth=1;" parent="1" vertex="1">
          <mxGeometry x="20" y="80" width="100" height="300" as="geometry" />
        </mxCell>
        <mxCell id="3nuBFxr9cyL0pnOWT2aG-5" value="AWS Lambda" style="shape=umlLifeline;perimeter=lifelinePerimeter;container=1;collapsible=0;recursiveResize=0;rounded=0;shadow=0;strokeWidth=1;" parent="1" vertex="1">
          <mxGeometry x="310" y="80" width="120" height="300" as="geometry" />
        </mxCell>
        <mxCell id="etzW6uhNlTJtuluLyZgJ-15" value="&lt;div&gt;any_pipelines?&lt;/div&gt;&lt;div&gt;&lt;br&gt;&lt;/div&gt;&lt;div&gt;Yes&amp;nbsp;&amp;nbsp;&amp;nbsp;&amp;nbsp;&amp;nbsp;&amp;nbsp;&amp;nbsp; &amp;nbsp;&amp;nbsp; &amp;nbsp; &amp;nbsp; &amp;nbsp; &amp;nbsp;&amp;nbsp; No&lt;br&gt; &lt;/div&gt;" style="rounded=1;whiteSpace=wrap;html=1;" vertex="1" parent="3nuBFxr9cyL0pnOWT2aG-5">
          <mxGeometry y="140" width="120" height="100" as="geometry" />
        </mxCell>
        <mxCell id="3nuBFxr9cyL0pnOWT2aG-8" value="⚡️ workflow {email}" style="verticalAlign=bottom;endArrow=block;entryX=0.509;entryY=0.264;shadow=0;strokeWidth=1;entryDx=0;entryDy=0;entryPerimeter=0;dashed=1;dashPattern=1 1;" parent="1" target="etzW6uhNlTJtuluLyZgJ-3" edge="1">
          <mxGeometry relative="1" as="geometry">
            <mxPoint x="75.00000000000011" y="159.20000000000005" as="sourcePoint" />
          </mxGeometry>
        </mxCell>
        <mxCell id="etzW6uhNlTJtuluLyZgJ-1" value="Bitbucket API" style="shape=umlLifeline;perimeter=lifelinePerimeter;container=1;collapsible=0;recursiveResize=0;rounded=0;shadow=0;strokeWidth=1;" vertex="1" parent="1">
          <mxGeometry x="490" y="80" width="100" height="300" as="geometry" />
        </mxCell>
        <mxCell id="etzW6uhNlTJtuluLyZgJ-3" value="AWS Chatbot" style="shape=umlLifeline;perimeter=lifelinePerimeter;container=1;collapsible=0;recursiveResize=0;rounded=0;shadow=0;strokeWidth=1;" vertex="1" parent="1">
          <mxGeometry x="160" y="80" width="100" height="300" as="geometry" />
        </mxCell>
        <mxCell id="etzW6uhNlTJtuluLyZgJ-8" value="aws lambda invoke  {email}" style="verticalAlign=bottom;endArrow=block;entryX=-0.017;entryY=0.2;shadow=0;strokeWidth=1;entryDx=0;entryDy=0;entryPerimeter=0;rounded=1;dashed=1;dashPattern=1 1;" edge="1" parent="1" target="etzW6uhNlTJtuluLyZgJ-15">
          <mxGeometry x="-0.0308" y="9" relative="1" as="geometry">
            <mxPoint x="210.0000000000001" y="190.00000000000006" as="sourcePoint" />
            <mxPoint x="354.59000000000015" y="188.96000000000004" as="targetPoint" />
            <mxPoint as="offset" />
          </mxGeometry>
        </mxCell>
        <mxCell id="etzW6uhNlTJtuluLyZgJ-13" value="" style="verticalAlign=bottom;endArrow=block;entryX=1.014;entryY=0.097;shadow=0;strokeWidth=1;entryDx=0;entryDy=0;exitX=0.52;exitY=0.415;exitDx=0;exitDy=0;exitPerimeter=0;rounded=1;entryPerimeter=0;" edge="1" parent="1" source="etzW6uhNlTJtuluLyZgJ-1" target="etzW6uhNlTJtuluLyZgJ-15">
          <mxGeometry x="-0.0996" y="-3" relative="1" as="geometry">
            <mxPoint x="512.9000000000001" y="250" as="sourcePoint" />
            <mxPoint x="370" y="250.53999999999996" as="targetPoint" />
            <mxPoint as="offset" />
          </mxGeometry>
        </mxCell>
        <mxCell id="etzW6uhNlTJtuluLyZgJ-22" value="&lt;div&gt;pipelines&lt;/div&gt;" style="edgeLabel;html=1;align=center;verticalAlign=middle;resizable=0;points=[];" vertex="1" connectable="0" parent="etzW6uhNlTJtuluLyZgJ-13">
          <mxGeometry x="-0.0925" y="-1" relative="1" as="geometry">
            <mxPoint as="offset" />
          </mxGeometry>
        </mxCell>
        <mxCell id="etzW6uhNlTJtuluLyZgJ-16" value="『只今更新されております』" style="endArrow=classic;html=1;rounded=1;exitX=0.001;exitY=0.651;exitDx=0;exitDy=0;exitPerimeter=0;" edge="1" parent="1" source="etzW6uhNlTJtuluLyZgJ-15" target="3nuBFxr9cyL0pnOWT2aG-1">
          <mxGeometry width="50" height="50" relative="1" as="geometry">
            <mxPoint x="220" y="280" as="sourcePoint" />
            <mxPoint x="270" y="230" as="targetPoint" />
          </mxGeometry>
        </mxCell>
        <mxCell id="etzW6uhNlTJtuluLyZgJ-9" value="/check_pipelines" style="verticalAlign=bottom;endArrow=block;entryX=0.516;entryY=0.388;shadow=0;strokeWidth=1;entryDx=0;entryDy=0;entryPerimeter=0;dashed=1;exitX=1;exitY=0;exitDx=0;exitDy=0;dashPattern=1 1;" edge="1" parent="1" source="etzW6uhNlTJtuluLyZgJ-15" target="etzW6uhNlTJtuluLyZgJ-1">
          <mxGeometry x="-0.0308" y="9" relative="1" as="geometry">
            <mxPoint x="400" y="211" as="sourcePoint" />
            <mxPoint x="503.48" y="205.91999999999985" as="targetPoint" />
            <mxPoint as="offset" />
          </mxGeometry>
        </mxCell>
        <mxCell id="etzW6uhNlTJtuluLyZgJ-19" value="Slack API" style="shape=umlLifeline;perimeter=lifelinePerimeter;container=1;collapsible=0;recursiveResize=0;rounded=0;shadow=0;strokeWidth=1;" vertex="1" parent="1">
          <mxGeometry x="640" y="80" width="100" height="300" as="geometry" />
        </mxCell>
        <mxCell id="etzW6uhNlTJtuluLyZgJ-24" value="userId" style="verticalAlign=bottom;endArrow=block;shadow=0;strokeWidth=1;exitX=0.487;exitY=0.652;exitDx=0;exitDy=0;exitPerimeter=0;entryX=0.995;entryY=0.578;entryDx=0;entryDy=0;entryPerimeter=0;" edge="1" parent="1" source="etzW6uhNlTJtuluLyZgJ-19" target="etzW6uhNlTJtuluLyZgJ-15">
          <mxGeometry x="-0.0308" y="9" relative="1" as="geometry">
            <mxPoint x="670" y="280" as="sourcePoint" />
            <mxPoint x="430" y="280" as="targetPoint" />
            <mxPoint as="offset" />
          </mxGeometry>
        </mxCell>
        <mxCell id="etzW6uhNlTJtuluLyZgJ-20" value="/userIdByEmail{email}" style="verticalAlign=bottom;endArrow=block;shadow=0;strokeWidth=1;dashed=1;entryX=0.509;entryY=0.63;entryDx=0;entryDy=0;entryPerimeter=0;dashPattern=1 1;" edge="1" parent="1" target="etzW6uhNlTJtuluLyZgJ-19">
          <mxGeometry x="-0.0308" y="9" relative="1" as="geometry">
            <mxPoint x="430" y="270" as="sourcePoint" />
            <mxPoint x="670" y="260" as="targetPoint" />
            <mxPoint as="offset" />
          </mxGeometry>
        </mxCell>
        <mxCell id="etzW6uhNlTJtuluLyZgJ-25" value="/run_pipeline{userId}" style="endArrow=classic;html=1;rounded=1;entryX=0.5;entryY=0.8;entryDx=0;entryDy=0;entryPerimeter=0;dashed=1;dashPattern=1 1;" edge="1" parent="1" target="etzW6uhNlTJtuluLyZgJ-1">
          <mxGeometry width="50" height="50" relative="1" as="geometry">
            <mxPoint x="430" y="290" as="sourcePoint" />
            <mxPoint x="480" y="240" as="targetPoint" />
          </mxGeometry>
        </mxCell>
        <mxCell id="etzW6uhNlTJtuluLyZgJ-26" value="&lt;div&gt;『{@userId}さんの変更が適用されました」&lt;/div&gt;" style="endArrow=classic;html=1;rounded=1;entryX=0.494;entryY=0.931;entryDx=0;entryDy=0;entryPerimeter=0;exitX=0.509;exitY=0.832;exitDx=0;exitDy=0;exitPerimeter=0;" edge="1" parent="1" source="etzW6uhNlTJtuluLyZgJ-1" target="3nuBFxr9cyL0pnOWT2aG-1">
          <mxGeometry width="50" height="50" relative="1" as="geometry">
            <mxPoint x="550" y="360" as="sourcePoint" />
            <mxPoint x="430" y="330" as="targetPoint" />
            <Array as="points">
              <mxPoint x="440" y="360" />
            </Array>
          </mxGeometry>
        </mxCell>
      </root>
    </mxGraphModel>
  </diagram>
</mxfile>
